<svg width="24" height="24" viewBox="0 0 24 24" fill="none" xmlns="http://www.w3.org/2000/svg">
<path d="M9.54297 14.4568L14.456 9.54376" stroke="#EDFFFF" stroke-opacity="0.5" stroke-width="1.5" stroke-linecap="round"/>
<path d="M2.03177 16.9041L1.291 17.0214L1.291 17.0214L2.03177 16.9041ZM2.03177 16.0967L1.291 15.9794V15.9794L2.03177 16.0967ZM7.90368 21.9687L8.021 22.7094H8.02101L7.90368 21.9687ZM7.09632 21.9687L7.21365 21.2279H7.21365L7.09632 21.9687ZM12.9682 16.9041L13.709 17.0214V17.0214L12.9682 16.9041ZM12.9682 16.0967L13.709 15.9794L13.709 15.9794L12.9682 16.0967ZM7.09632 11.0322L7.21365 11.773L7.21365 11.773L7.09632 11.0322ZM7.90368 11.0322L8.02101 10.2914L8.021 10.2914L7.90368 11.0322ZM8.45293 12.0791C8.79149 12.3177 9.2594 12.2367 9.49804 11.8981C9.73668 11.5596 9.65568 11.0916 9.31711 10.853L8.45293 12.0791ZM13.1474 14.6833C12.9088 14.3448 12.4409 14.2637 12.1023 14.5024C11.7637 14.741 11.6827 15.2089 11.9214 15.5475L13.1474 14.6833ZM4.74589 19.2545C4.04987 18.5585 3.57118 18.0784 3.24406 17.6718C2.9258 17.2761 2.80928 17.0187 2.77254 16.7868L1.291 17.0214C1.38543 17.6176 1.67659 18.1164 2.07533 18.612C2.46521 19.0966 3.01284 19.6428 3.68523 20.3152L4.74589 19.2545ZM3.68523 12.6857C3.01284 13.3581 2.46521 13.9042 2.07533 14.3889C1.67659 14.8845 1.38543 15.3833 1.291 15.9794L2.77254 16.2141C2.80928 15.9821 2.9258 15.7247 3.24406 15.3291C3.57118 14.9225 4.04987 14.4423 4.74589 13.7463L3.68523 12.6857ZM2.77254 16.7868C2.74249 16.5971 2.74249 16.4038 2.77254 16.2141L1.291 15.9794C1.23633 16.3246 1.23633 16.6762 1.291 17.0214L2.77254 16.7868ZM10.2541 19.2545C9.55809 19.9506 9.07794 20.4292 8.67133 20.7564C8.27572 21.0746 8.01832 21.1912 7.78635 21.2279L8.02101 22.7094C8.61717 22.615 9.11594 22.3238 9.61157 21.9251C10.0962 21.5352 10.6424 20.9876 11.3148 20.3152L10.2541 19.2545ZM3.68523 20.3152C4.35763 20.9876 4.9038 21.5352 5.38843 21.9251C5.88406 22.3238 6.38283 22.615 6.979 22.7094L7.21365 21.2279C6.98168 21.1912 6.72428 21.0746 6.32867 20.7564C5.92206 20.4292 5.44191 19.9506 4.74589 19.2545L3.68523 20.3152ZM7.78635 21.2279C7.59664 21.2579 7.40337 21.2579 7.21365 21.2279L6.97899 22.7094C7.32418 22.7641 7.67582 22.7641 8.021 22.7094L7.78635 21.2279ZM11.3148 20.3152C11.9872 19.6428 12.5348 19.0966 12.9247 18.612C13.3234 18.1164 13.6146 17.6176 13.709 17.0214L12.2275 16.7868C12.1907 17.0187 12.0742 17.2761 11.7559 17.6718C11.4288 18.0784 10.9501 18.5585 10.2541 19.2545L11.3148 20.3152ZM12.2275 16.2141C12.2575 16.4038 12.2575 16.5971 12.2275 16.7868L13.709 17.0214C13.7637 16.6762 13.7637 16.3246 13.709 15.9794L12.2275 16.2141ZM4.74589 13.7463C5.44191 13.0503 5.92206 12.5716 6.32867 12.2445C6.72428 11.9262 6.98168 11.8097 7.21365 11.773L6.979 10.2914C6.38283 10.3859 5.88406 10.677 5.38843 11.0758C4.9038 11.4656 4.35763 12.0133 3.68523 12.6857L4.74589 13.7463ZM8.021 10.2914C7.67582 10.2368 7.32418 10.2368 6.97899 10.2914L7.21365 11.773C7.40337 11.7429 7.59663 11.7429 7.78636 11.773L8.021 10.2914ZM9.31711 10.853C8.91432 10.5691 8.49872 10.3671 8.02101 10.2914L7.78635 11.773C7.97354 11.8026 8.17645 11.8842 8.45293 12.0791L9.31711 10.853ZM11.9214 15.5475C12.1163 15.824 12.1978 16.0269 12.2275 16.2141L13.709 15.9794C13.6333 15.5017 13.4313 15.0861 13.1474 14.6833L11.9214 15.5475Z" fill="#EDFFFF" fill-opacity="0.5"/>
<path d="M11.0318 7.09675L10.291 6.97942V6.97942L11.0318 7.09675ZM11.0318 7.90411L10.291 8.02143L10.291 8.02143L11.0318 7.90411ZM16.9037 12.9687L17.021 13.7094H17.021L16.9037 12.9687ZM16.0963 12.9687L16.2136 12.2279H16.2136L16.0963 12.9687ZM21.9682 7.09675L22.709 6.97942V6.97942L21.9682 7.09675ZM21.9682 7.90411L22.709 8.02143V8.02143L21.9682 7.90411ZM16.9037 2.0322L17.021 1.29143L17.021 1.29143L16.9037 2.0322ZM16.0963 2.0322L16.2136 2.77296V2.77296L16.0963 2.0322ZM10.8526 9.31754C11.0912 9.6561 11.5591 9.73711 11.8977 9.49847C12.2363 9.25983 12.3173 8.79192 12.0786 8.45335L10.8526 9.31754ZM15.5471 11.9218C15.2085 11.6832 14.7406 11.7642 14.502 12.1027C14.2633 12.4413 14.3443 12.9092 14.6829 13.1478L15.5471 11.9218ZM12.6852 3.68566C12.0128 4.35805 11.4652 4.90422 11.0753 5.38885C10.6766 5.88449 10.3854 6.38326 10.291 6.97942L11.7725 7.21407C11.8093 6.98211 11.9258 6.72471 12.2441 6.3291C12.5712 5.92249 13.0499 5.44234 13.7459 4.74632L12.6852 3.68566ZM11.7725 7.78678C11.7425 7.59706 11.7425 7.40379 11.7725 7.21407L10.291 6.97942C10.2363 7.32461 10.2363 7.67625 10.291 8.02143L11.7725 7.78678ZM19.2541 10.2545C18.5581 10.9506 18.0779 11.4292 17.6713 11.7564C17.2757 12.0746 17.0183 12.1912 16.7864 12.2279L17.021 13.7094C17.6172 13.615 18.1159 13.3238 18.6116 12.9251C19.0962 12.5352 19.6424 11.9876 20.3148 11.3152L19.2541 10.2545ZM16.7864 12.2279C16.5966 12.2579 16.4034 12.2579 16.2136 12.2279L15.979 13.7094C16.3242 13.7641 16.6758 13.7641 17.021 13.7094L16.7864 12.2279ZM19.2541 4.74632C19.9501 5.44234 20.4288 5.92249 20.7559 6.3291C21.0742 6.72471 21.1907 6.98211 21.2275 7.21407L22.709 6.97942C22.6146 6.38325 22.3234 5.88449 21.9247 5.38885C21.5348 4.90422 20.9872 4.35806 20.3148 3.68566L19.2541 4.74632ZM20.3148 11.3152C20.9872 10.6428 21.5348 10.0966 21.9247 9.612C22.3234 9.11637 22.6146 8.6176 22.709 8.02143L21.2275 7.78678C21.1907 8.01874 21.0742 8.27615 20.7559 8.67176C20.4288 9.07837 19.9501 9.55851 19.2541 10.2545L20.3148 11.3152ZM21.2275 7.21407C21.2575 7.4038 21.2575 7.59706 21.2275 7.78678L22.709 8.02143C22.7637 7.67624 22.7637 7.32461 22.709 6.97942L21.2275 7.21407ZM20.3148 3.68566C19.6424 3.01326 19.0962 2.46564 18.6116 2.07575C18.1159 1.67702 17.6172 1.38586 17.021 1.29143L16.7864 2.77296C17.0183 2.8097 17.2757 2.92622 17.6713 3.24449C18.0779 3.57161 18.5581 4.0503 19.2541 4.74632L20.3148 3.68566ZM13.7459 4.74632C14.4419 4.0503 14.9221 3.57161 15.3287 3.24449C15.7243 2.92622 15.9817 2.8097 16.2136 2.77296L15.979 1.29143C15.3828 1.38585 14.8841 1.67702 14.3884 2.07575C13.9038 2.46564 13.3576 3.01326 12.6852 3.68566L13.7459 4.74632ZM17.021 1.29143C16.6758 1.23676 16.3242 1.23676 15.979 1.29143L16.2136 2.77296C16.4034 2.74291 16.5966 2.74292 16.7864 2.77296L17.021 1.29143ZM12.0786 8.45335C11.8837 8.17688 11.8022 7.97397 11.7725 7.78678L10.291 8.02143C10.3667 8.49914 10.5687 8.91474 10.8526 9.31754L12.0786 8.45335ZM14.6829 13.1478C15.0857 13.4318 15.5013 13.6338 15.979 13.7094L16.2136 12.2279C16.0265 12.1982 15.8236 12.1167 15.5471 11.9218L14.6829 13.1478Z" fill="#EDFFFF" fill-opacity="0.5"/>
<path d="M21 16H19M16 21V19" stroke="#EDFFFF" stroke-opacity="0.5" stroke-width="1.5" stroke-linecap="round" stroke-linejoin="round"/>
<path d="M3 8H5M8 3V5" stroke="#EDFFFF" stroke-opacity="0.5" stroke-width="1.5" stroke-linecap="round" stroke-linejoin="round"/>
</svg>
